<svg width="310" height="460" viewBox="0 0 310 460" fill="none" xmlns="http://www.w3.org/2000/svg">
<path d="M11.9785 347.999H155.001H298.024" stroke="#7EB693" stroke-width="9" stroke-miterlimit="10"/>
<path d="M44.293 401.879L155.003 401.879L265.712 401.879" stroke="#7EB693" stroke-width="9" stroke-miterlimit="10"/>
<path d="M150.898 8.14038L150.898 66.7824L150.898 125.424" stroke="#7EB693" stroke-width="9" stroke-miterlimit="10"/>
<path d="M151.51 119.427V340.856" stroke="#7EB693" stroke-width="9" stroke-miterlimit="10"/>
<path d="M242.207 33.7146L151.51 126.572" stroke="#7EB693" stroke-width="9" stroke-miterlimit="10"/>
<path d="M277.091 69.4293L151.51 198.001" stroke="#7EB693" stroke-width="9" stroke-miterlimit="10"/>
<path d="M298.021 126.57L151.51 269.427" stroke="#7EB693" stroke-width="9" stroke-miterlimit="10"/>
<path d="M304.998 190.857L151.51 348" stroke="#7EB693" stroke-width="9" stroke-miterlimit="10"/>
<path d="M305 262.286L221.279 348" stroke="#7EB693" stroke-width="9" stroke-miterlimit="10"/>
<path d="M5 262.286L88.7207 348" stroke="#7EB693" stroke-width="9" stroke-miterlimit="10"/>
<path d="M67.791 33.7146L151.512 126.572" stroke="#7EB693" stroke-width="9" stroke-miterlimit="10"/>
<path d="M32.9004 69.4293L151.505 198.001" stroke="#7EB693" stroke-width="9" stroke-miterlimit="10"/>
<path d="M11.9785 119.427L151.513 269.427" stroke="#7EB693" stroke-width="9" stroke-miterlimit="10"/>
<path d="M5 183.714L151.511 340.857" stroke="#7EB693" stroke-width="9" stroke-miterlimit="10"/>
<path d="M155 455.142C72.1653 455.142 5 384.334 5 296.971V163.313C5 75.9664 72.1653 5.14209 155 5.14209C237.849 5.14209 304.999 75.9664 304.999 163.313V296.971C305.014 384.334 237.849 455.142 155 455.142Z" stroke="#7EB693" stroke-width="9" stroke-miterlimit="10"/>
</svg>
